<svg width="256" height="101" viewBox="0 0 256 101" fill="none" xmlns="http://www.w3.org/2000/svg">
<path d="M158.303 73.3531C143.609 84.1969 122.307 89.963 103.963 89.963C78.2545 89.963 55.1029 80.4596 37.5826 64.6393C36.2085 63.3973 37.4337 61.7 39.0859 62.661C57.986 73.6594 81.3652 80.2854 105.506 80.2854C121.793 80.2854 139.695 76.9049 156.167 69.9165C158.651 68.8655 160.736 71.5547 158.303 73.3531Z" fill="#222222"/>
<path d="M164.418 66.3674C162.538 63.9621 151.994 65.2266 147.257 65.7942C145.821 65.9684 145.599 64.7123 146.892 63.8047C155.302 57.8953 169.085 59.6009 170.687 61.582C172.3 63.5743 170.259 77.3939 162.38 83.9889C161.166 85.0033 160.011 84.461 160.551 83.1235C162.33 78.6949 166.3 68.7784 164.418 66.3674Z" fill="#222222"/>
<path d="M147.591 22.0734V16.3326C147.597 15.4587 148.254 14.877 149.047 14.8798L174.775 14.877C175.599 14.877 176.259 15.4727 176.259 16.3241V21.2473C176.25 22.0734 175.554 23.1496 174.323 24.8609L160.995 43.8902C165.941 43.775 171.176 44.5169 175.672 47.0402C176.686 47.6107 176.959 48.4537 177.037 49.2826V55.4084C177.037 56.2542 176.113 57.2293 175.14 56.7207C167.222 52.5703 156.715 52.1179 147.957 56.7713C147.063 57.249 146.127 56.2852 146.127 55.4393V49.617C146.127 48.6869 146.144 47.0908 147.085 45.6718L162.524 23.5206L149.081 23.5177C148.257 23.5177 147.597 22.9333 147.591 22.0734Z" fill="#222222"/>
<path d="M53.7401 57.9262H45.9114C45.1668 57.8784 44.571 57.3192 44.5092 56.6027L44.5148 16.4281C44.5148 15.6273 45.1892 14.9838 46.0266 14.9838L53.3158 14.981C54.0773 15.0203 54.6898 15.5964 54.7376 16.3298V21.5732H54.8865C56.7861 16.5012 60.366 14.1323 65.188 14.1323C70.083 14.1323 73.1544 16.5012 75.3462 21.5732C77.2457 16.5012 81.5563 14.1323 86.159 14.1323C89.4467 14.1323 93.0267 15.4868 95.2185 18.53C97.7025 21.9132 97.1939 26.8139 97.1939 31.1272L97.1855 56.479C97.1855 57.2799 96.5111 57.9234 95.6765 57.9234H87.8591C87.0695 57.8728 86.4541 57.2518 86.4541 56.4819L86.4513 35.1849C86.4513 33.4961 86.5974 29.2698 86.2293 27.6625C85.6448 24.9537 83.8942 24.1921 81.6293 24.1921C79.7269 24.1921 77.7543 25.4595 76.9507 27.4883C76.147 29.5199 76.2201 32.9003 76.2201 35.1821V56.479C76.2201 57.2799 75.5457 57.9234 74.7111 57.9234H66.8937C66.1069 57.8728 65.4887 57.2518 65.4887 56.4819L65.4802 35.1849C65.4802 30.7057 66.2137 24.1135 60.6611 24.1135C55.0355 24.1135 55.2547 30.5343 55.2547 35.1849L55.249 56.4819C55.249 57.2827 54.5746 57.9262 53.7401 57.9262Z" fill="#222222"/>
<path d="M198.48 22.3375C192.709 22.3375 192.343 30.1971 192.343 35.1006C192.343 40.004 192.27 50.4881 198.41 50.4881C204.474 50.4881 204.766 42.0356 204.766 36.8793C204.766 33.4989 204.617 29.4384 203.595 26.2266C202.718 23.4363 200.964 22.3375 198.48 22.3375ZM198.41 14.1352C210.027 14.1352 216.31 24.1135 216.31 36.795C216.31 49.0494 209.369 58.772 198.41 58.772C187.01 58.772 180.8 48.7965 180.8 36.3707C180.8 23.8577 187.08 14.1352 198.41 14.1352Z" fill="#222222"/>
<path d="M231.374 57.9262H223.574C222.792 57.8756 222.171 57.2546 222.171 56.4847L222.157 16.296C222.225 15.5598 222.874 14.9838 223.661 14.9838L230.922 14.981C231.607 15.0175 232.169 15.4811 232.313 16.105V22.2504H232.459C234.653 16.7541 237.719 14.1352 243.126 14.1352C246.633 14.1352 250.069 15.4025 252.261 18.87C254.307 22.0846 254.307 27.4911 254.307 31.3829V56.6645C254.222 57.3754 253.582 57.929 252.806 57.929H244.961C244.236 57.884 243.651 57.3501 243.567 56.6645V34.8533C243.567 30.4556 244.081 24.0292 238.672 24.0292C236.772 24.0292 235.019 25.2965 234.142 27.241C233.046 29.6941 232.9 32.1444 232.9 34.8533V56.4847C232.886 57.2827 232.209 57.9262 231.374 57.9262Z" fill="#222222"/>
<path d="M38.4087 50.564C36.9784 48.5886 35.4526 46.9812 35.4526 43.3114V31.1188C35.4526 25.9484 35.8207 21.2051 32.0131 17.6448C29.0795 14.832 24.2632 13.798 20.4921 13.7502H19.9133C12.5455 13.8261 4.43861 16.6557 2.71889 25.732C2.53343 26.7099 3.24717 27.2241 3.88785 27.3703L11.4748 28.1936C12.1858 28.1571 12.7 27.4574 12.8349 26.7521C13.484 23.5824 16.1394 22.0537 19.1265 22.0537C20.7338 22.0537 22.5659 22.6466 23.5185 24.0882C24.6172 25.6983 24.4683 27.8985 24.4683 29.7644V30.7816C19.9329 31.2874 14.001 31.6246 9.75513 33.4904C4.84606 35.6064 1.40662 39.9281 1.40662 46.2816C1.40662 54.4137 6.53206 58.4826 13.1215 58.4826C18.6881 58.4826 21.7285 57.1703 26.0278 52.7923C27.4469 54.8521 27.9133 55.8496 30.5154 58.0105C31.0999 58.3224 31.8473 58.2915 32.3644 57.8278L32.3812 57.8447C33.9436 56.4538 36.7845 53.9866 38.3834 52.6462C39.0213 52.1235 38.9061 51.2777 38.4087 50.564ZM23.0071 47.0459C21.7651 49.2461 19.7868 50.6033 17.5866 50.6033C14.5855 50.6033 12.8293 48.316 12.8293 44.9271C12.8293 38.259 18.8089 37.0479 24.4711 37.0479V38.7451C24.4711 41.794 24.5442 44.3342 23.0071 47.0459Z" fill="#222222"/>
<path d="M141.019 50.564C139.588 48.5886 138.063 46.9812 138.063 43.3114V31.1188C138.063 25.9484 138.431 21.2051 134.623 17.6448C131.689 14.832 126.873 13.798 123.102 13.7502H122.52C115.155 13.8261 107.049 16.6557 105.326 25.732C105.143 26.7099 105.854 27.2241 106.495 27.3703L114.085 28.1936C114.793 28.1571 115.304 27.4574 115.442 26.7521C116.097 23.5824 118.747 22.0537 121.734 22.0537C123.344 22.0537 125.173 22.6466 126.126 24.0882C127.224 25.6983 127.078 27.8985 127.078 29.7644V30.7816C122.537 31.2902 116.605 31.6274 112.359 33.4932C107.456 35.612 104.011 39.931 104.011 46.2844C104.011 54.4165 109.136 58.4854 115.726 58.4854C121.292 58.4854 124.336 57.1731 128.632 52.7951C130.054 54.8549 130.52 55.8524 133.12 58.0133C133.704 58.3252 134.452 58.2943 134.966 57.8307L134.988 57.8475C136.551 56.4566 139.389 53.9894 140.991 52.649C141.631 52.1236 141.522 51.2777 141.019 50.564ZM125.617 47.0459C124.372 49.2461 122.394 50.6033 120.197 50.6033C117.195 50.6033 115.439 48.316 115.439 44.9271C115.439 38.259 121.419 37.0479 127.081 37.0479V38.7451C127.081 41.794 127.154 44.3342 125.617 47.0459Z" fill="#222222"/>
</svg>
