<?xml version="1.0" encoding="UTF-8"?>
<svg id="Logo" xmlns="http://www.w3.org/2000/svg" version="1.1" viewBox="0 0 446 97.1">
  <defs>
    <style>
      .cls-1 {
        fill: #000;
        stroke-width: 0px;
      }
    </style>
  </defs>
  <path class="cls-1" d="M52.4,46.5c-1,3.4-3.5,1.7-3.5-.2s.9-3.3.9-3.3l-1.8-2.1h-7.8v-2.4h6.2l2.8-6.2-1.3-2.4h-3.5v-2.9h5l.9-2.1h2.1v-.3h-8v-1.1l-1.6-.9-1.5.9v1.1h-9.6v-1.1l-1.5-.9-1.6.9v1.1h-8v.3h2.1l.9,2.1h5v2.9h-3.5l-1.3,2.4,2.8,6.2h6.2v2.4h-7.8l-1.8,2.1s.9.7.9,3.3-2.5,3.6-3.5.2c0,0-.6,5.9,3.1,5.9s3.6-3.6,2.8-8.7h6.3v3.8h-2.1v-2l-.9-.6-1,.7v4.4l2,2s2.1-1.9,5.8-1.9,5.8,1.9,5.8,1.9l2-2v-4.4l-1-.7-.9.6v2h-2.1v-3.8h6.3c-.8,5.2.3,8.7,2.8,8.7,3.7,0,3.1-5.9,3.1-5.9h-.2ZM32.7,33.7h-3l.5,1h2.6v1.4h-5l-1.7-3.8h6.7v1.4h0ZM36.5,29.9h-4.8v-2.9h9.6v2.9h-4.8ZM40.2,36.1v-1.4h2.6l.5-1h-3v-1.4h6.7l-1.7,3.8h-5.1ZM36.5,61h-.2l-22.6-11.3v-23.2l22.8-11.1,22.8,11.1v23.2l-22.8,11.3h0ZM14.5,49.1l21.9,10.9,22-10.9v-22.1l-22-10.7-22,10.7v22.1h0ZM72.9,17.8L36.5,0,0,17.8v40.2l36.5,18.2,36.4-18.2V17.8h0ZM61.8,51.2l-25.3,12.4-25.3-12.3v-26.2l25.3-12.4,25.3,12.3v26.2h0ZM288,38c0,15-9.8,23.4-22.4,23.4s-22.4-8.6-22.4-23.5,9.1-22.8,22.4-22.8,22.4,11.3,22.4,22.9ZM256.6,38c0,5.7,1.8,12.8,8.9,12.8s9-5.4,9-12.8-2.5-12.5-9.1-12.3c-6.8,0-8.8,6.7-8.8,12.3h0ZM140.5,60.4V15.9h13.4v44.5h-13.4ZM112,43.6l-3.4,3.7v13.1h-13.4V15.9h13.4v13.6l12.9-13.6h15.9l-16.5,18,18.9,26.4h-16.8l-11-16.8h0ZM174.9,43.6l-3.4,3.7v13.1h-13.4V15.9h13.4v13.6l12.9-13.6h15.9l-16.5,18,18.9,26.4h-16.8l-11-16.8h0ZM221.1,43.6l-3.4,3.7v13.1h-13.4V15.9h13.4v13.6l12.9-13.6h15.9l-16.5,18,18.9,26.4h-16.8l-11-16.8h0ZM338.5,15.9v44.5h-12.8v-25.8l-6,25.8h-10.3l-5.9-25.8v25.8h-12.8V15.9h18.5l5.3,23,5.2-23h18.8ZM428.1,60.4h-13.7l-12.4-22.9v22.9h-13.4V16h13.7l12.4,21.4V15.9h13.4v44.4h0ZM373,60.4h13.1l-15.6-44.5h-14.8l-15.6,44.5h13.1l2.2-6.4h15.5l2.2,6.4h-.1ZM358.8,44l4.3-12.5,4.3,12.5h-8.6,0ZM62.9,71.3c0-2.8,2.3-5,5-5s5,2.3,5,5-2.2,5-5,5-5-2.2-5-5M71.7,71.3c0-2.3-1.7-4.1-3.8-4.1s-3.8,1.7-3.8,4.1,1.7,4.1,3.8,4.1,3.8-1.7,3.8-4.1ZM66,68.5h2.1c1.4,0,2.1.5,2.1,1.7s-.6,1.4-1.5,1.5l1.5,2.5h-1.1l-1.5-2.4h-.6v2.4h-1.1v-5.7h0ZM67,70.9h.9c.6,0,1.2,0,1.2-.8s-.6-.8-1.2-.8h-.9v1.6h0ZM433.8,22c0-3.3,2.7-6.1,6.1-6.1s6.1,2.7,6.1,6.1-2.7,6.1-6.1,6.1-6.1-2.7-6.1-6.1M444.5,22c0-2.8-2-4.9-4.6-4.9s-4.6,2-4.6,4.9,2,4.9,4.6,4.9,4.6-2,4.6-4.9ZM437.6,18.5h2.5c1.6,0,2.5.6,2.5,2s-.7,1.8-1.8,1.9l1.9,3h-1.3l-1.8-3h-.8v3h-1.3v-6.9h0ZM438.8,21.5h1.1c.8,0,1.4-.1,1.4-1s-.7-.9-1.4-.9h-1.1v2h0Z"/>
</svg>