<svg width="175" height="44" viewBox="0 0 175 44" fill="none" xmlns="http://www.w3.org/2000/svg">
<path fill-rule="evenodd" clip-rule="evenodd" d="M123.2 22.1C123.2 21.2 122.9 20.3 121.9 20.3C121.5 20.3 121.2 20.4 120.9 20.7C120.1 21.5 119.6 22.6 119.4 23.7L118.8 27.1C119 27.3 119.3 27.4 119.5 27.5C119.7 27.6 119.9 27.6 120.1 27.6C121.9 27.6 123.2 24.4 123.2 22.1ZM128 21.7C128 26.5 125 31.2 120.3 31.2C119.8 31.2 119.3 31.1 118.8 31C118.5 30.9 118.3 30.8 118.1 30.7H118L117.3 34.6C117 35.9 116.7 36 115.7 36.1C114.9 36.2 114 36 113.2 35.7C112.7 35.5 112.4 35.2 112.6 34.3L115.8 17.6C115.9 16.9 116.2 16.6 116.7 16.5C117.1 16.5 117.5 16.5 117.9 16.5C118.5 16.6 119 16.7 119.5 17C119.9 17.3 120.1 17.8 120 18.2L119.9 18.5C120.3 17.9 120.8 17.4 121.5 17.1C122.2 16.7 123 16.5 123.8 16.5C126.8 16.5 128 18.9 128 21.7ZM100 20.1C100.5 19.7 100.8 19.2 101 18.6C101.2 17.9 101.2 17.5 100.1 16.9C98.9 16.4 97.6 16.2 96.2 16.3C92.5 16.4 90 18.5 90.2 21.5C90.3 23.2 91.8 24.4 93.4 25.2C94.6 25.8 95 26.2 95.1 26.7C95.1 27.2 94.7 27.7 93.8 27.7C92.8 27.7 91.8 27.5 90.9 27.2C90.2 26.9 90 27.1 89.7 27.4C89.3 27.9 89 28.5 89 29.1C88.9 29.8 89.1 30.2 89.9 30.6C91.1 31.1 92.4 31.3 93.6 31.2C97.5 31.1 100.1 29.2 99.9 26C99.8 24.2 98.1 23.1 96.4 22.2C95.4 21.7 94.9 21.4 94.9 20.9C94.9 20.2 95.5 19.9 96.4 19.8C97.2 19.8 97.9 19.9 98.7 20.1L98.9 20.2C99.7 20.4 99.7 20.3 100 20.1ZM150.2 27.5C150.1 27.1 149.6 26.8 149.2 26.9C148.9 26.9 148.3 27.1 148.1 26.9C147.9 26.7 147.7 26.5 147.7 26.2C147.8 25.7 147.8 25.2 147.9 24.7L148.8 20.2H150.8C151.3 20.1 151.6 19.8 151.7 19.3C151.9 18.5 151.9 18.1 152 17.7C152 17.4 151.9 17.1 151.7 17C151.5 16.8 151.2 16.7 150.9 16.7H149.4C149.4 16.7 149.9 14.4 149.9 14.3C150 14.1 150 13.8 149.8 13.6C149.7 13.4 149.5 13.2 149.2 13.1C148.5 12.8 147.7 12.6 146.9 12.7C146 12.7 145.6 12.9 145.3 14.2L144.8 16.7H144C143.6 16.7 143.2 17 143.1 17.4C143 17.8 142.9 18.3 142.8 18.9C142.7 19.3 142.6 20 143.7 20.1H144.3L143.3 25.3C143.1 26.1 143 26.9 143 27.7C143.1 29.6 144.3 30.9 146.8 30.9C147.6 30.9 148.5 30.7 149.2 30.3C150.2 29.8 150.3 29.6 150.4 28.8C150.4 28.4 150.4 27.9 150.2 27.5ZM157.3 16.9C156.6 16.6 155.8 16.4 155.1 16.4C153.9 16.4 153.6 16.7 153.5 17.6L151.8 29.3C151.7 29.6 151.8 29.9 151.9 30.1C152 30.3 152.3 30.5 152.5 30.6C153.3 30.9 154.1 31.1 155 31C155.9 30.9 156.3 30.7 156.5 29.5L158.1 18.5C158.2 17.8 157.9 17.2 157.3 16.9ZM31.9 13.1C32.2 12.6 32.3 12 31.9 11.5C31.4 10.7 30.8 9.99999 30 9.59999C28.9 8.99999 28.1 9.09999 27.4 10.3C26.6 11.7 25.8 13.1 25 14.5L22.7 18.4C22.5 18 21.7 14.2 21.3 12.3C21.2 11.8 21 11.4 20.6 11C19.8 10.2 18.8 9.69999 17.7 9.69999C16.3 9.69999 16 10.1 16.1 11.3C16.1 11.7 16.2 12.1 16.3 12.5C16.8 14.9 17.5 17.3 18.5 19.6C18.9 20.5 19.4 21.4 20 22.2C20.2 22.4 20.2 22.8 20.1 23C19.4 24.6 18.6 26.2 17.9 27.8C17.3 29.3 16.9 30.9 17 32.5C17 33.1 17.3 33.7 17.8 34.1C18.5 34.7 19.5 34.9 20.4 34.7C21.3 34.6 22 34 22.2 33.2C23.3 28.2 25.3 23.3 28.1 19C29.4 16.8 30.6 15 31.9 13.1ZM156.3 10.9C155.7 10.9 155.1 11.2 154.6 11.7C154.2 12.2 154 12.8 154 13.5C154 14.1 154.2 14.6 154.6 15C155 15.4 155.5 15.6 156.1 15.5C156.8 15.5 157.4 15.2 157.8 14.7C158.2 14.2 158.5 13.5 158.4 12.9C158.4 12.3 158.1 11.8 157.7 11.4C157.5 11.1 156.9 10.9 156.3 10.9ZM58.8 16.4C57 16.4 55.4 17.3 54.4 18.8C54.2 17.3 52.8 16.3 51.3 16.4C49.5 16.4 47.8 17.3 46.9 18.8C46.9 18.8 47 18.3 47 18.2C47.1 17.7 46.9 17.2 46.5 16.9C45.9 16.6 45.2 16.4 44.5 16.5C43.8 16.5 43.2 16.6 43 17.6L40.8 29C40.7 29.7 40.7 30 41.1 30.3C41.7 30.7 42.5 31 43.2 31.1C44.1 31.2 45 31 45.1 30.4L46.2 24.6C46.7 21.9 47.8 20.4 48.8 20.4C49.4 20.4 49.7 20.9 49.7 21.7C49.7 22.3 49.6 22.8 49.5 23.4L48.4 29.2C48.2 29.7 48.4 30.2 48.8 30.5C49.4 30.9 50.2 31.2 50.9 31.2C52.1 31.3 52.6 31 52.8 29.9L53.8 24.6C54.3 21.9 55.3 20.4 56.3 20.4C57 20.4 57.3 20.9 57.3 21.6C57.3 22.2 57.2 22.8 57.1 23.4L56 28.9C55.8 29.4 56 29.9 56.3 30.2C57 30.6 57.7 30.9 58.5 30.9C59.5 31 60.2 30.7 60.4 29.6L61.8 22.6C61.9 21.7 62 20.9 62.1 20C62.1 17.8 61.1 16.4 58.8 16.4ZM133.9 22.2C136.5 22.3 137.6 21.9 137.7 20.9C137.7 20.3 137.3 19.9 136.6 19.9C135.2 19.9 134 20.9 133.9 22.2ZM140.3 29.3C140.3 29.7 140.3 30 139.6 30.3C138.1 30.8 136.4 31.1 134.8 31C130.8 30.9 128.9 28.6 129 24.9C129.1 20.6 132.1 16.2 137.2 16.4C140.1 16.5 142 18.3 141.9 20.9C141.8 24.6 138.6 25.9 133.3 25.6C133.3 26 133.5 26.3 133.8 26.6C134.4 27.1 135.2 27.4 136.1 27.4C136.9 27.4 137.7 27.3 138.5 27.1C139.2 26.9 139.4 27.1 139.8 27.6C140 28.1 140.2 28.7 140.3 29.3ZM33.1 22.2C35.7 22.3 36.8 21.9 36.9 20.9C36.9 20.3 36.5 19.9 35.8 19.9C34.4 19.9 33.2 20.9 33.1 22.2ZM39.5 29.3C39.5 29.7 39.5 30 38.8 30.3C37.3 30.8 35.6 31.1 34 31C30 30.9 28.1 28.6 28.2 24.9C28.3 20.6 31.3 16.2 36.4 16.4C39.3 16.5 41.2 18.3 41.1 20.9C41 24.6 37.8 25.9 32.5 25.6C32.5 26 32.7 26.3 33 26.6C33.6 27.1 34.5 27.4 35.3 27.4C36.1 27.4 36.9 27.3 37.7 27.1C38.4 26.9 38.6 27.1 39 27.6C39.2 28.1 39.4 28.7 39.5 29.3ZM67.7 22.2C70.3 22.3 71.4 21.9 71.5 20.9C71.5 20.3 71.1 19.9 70.4 19.9C69 19.9 67.9 20.9 67.7 22.2ZM74.1 29.3C74.1 29.7 74.1 30 73.4 30.3C71.9 30.8 70.2 31.1 68.6 31C64.6 30.9 62.7 28.6 62.7 24.9C62.8 20.6 65.8 16.2 70.9 16.4C73.8 16.5 75.7 18.3 75.6 20.9C75.5 24.6 72.3 25.9 67 25.6C67 26 67.2 26.3 67.5 26.6C68.1 27.1 68.9 27.4 69.8 27.4C70.6 27.4 71.4 27.3 72.2 27.1C72.9 26.9 73.1 27.1 73.5 27.6C73.9 28.1 74.1 28.7 74.1 29.3ZM105.9 22.2C108.5 22.3 109.6 21.9 109.7 20.9C109.7 20.6 109.6 20.3 109.4 20.1C109.2 19.9 108.9 19.8 108.6 19.8C107.2 19.9 106.1 20.9 105.9 22.2ZM112.3 29.3C112.3 29.7 112.3 30 111.6 30.3C110.1 30.8 108.4 31.1 106.8 31C102.8 30.9 100.9 28.6 101 24.9C101.1 20.6 104.1 16.2 109.2 16.4C112.1 16.5 114 18.3 113.9 20.9C113.8 24.6 110.6 25.9 105.3 25.6C105.3 26 105.5 26.3 105.8 26.6C106.4 27.1 107.3 27.4 108.1 27.4C108.9 27.4 109.7 27.3 110.5 27.1C111.2 26.9 111.4 27.1 111.8 27.6C112 28.1 112.2 28.7 112.3 29.3ZM85 23.1C85 23.1 87.3 28.4 87.7 29.2C88 29.9 87.7 30.3 86.9 30.6C86 30.9 85 31 84 30.9C83.6 30.8 83.2 30.6 83.1 30.2L81.5 25.8L80.6 26.6L80 29.5C79.8 30.7 79.3 30.8 78.4 30.9C77.6 31 76.8 30.8 76 30.5C75.4 30.2 75.1 29.9 75.4 28.9L78.7 11.6C78.9 10.6 79.1 10.1 80.6 10.1C81.4 10.1 82.2 10.3 82.9 10.7C83.3 11 83.5 11.6 83.4 12.1C83 14.3 81.6 21.2 81.6 21.2C81.6 21.2 84.9 17.9 85.5 17.3C86.1 16.7 86.6 16.4 87 16.4C87.8 16.4 88.6 16.7 89.3 17.1C90.1 17.7 90.2 18.5 89.6 19L85 23.1Z" fill="#FA0050"/>
</svg>
